<?xml version="1.0" encoding="UTF-8"?>
<svg version="1.1" xmlns="http://www.w3.org/2000/svg" width="386" height="117" style="background: transparent">
<path d="M0 0 C127.38 0 254.76 0 386 0 C386 38.61 386 77.22 386 117 C258.62 117 131.24 117 0 117 C0 78.39 0 39.78 0 0 Z " fill="transparent" transform="translate(0,0)"/>
<path d="M0 0 C0.97904297 -0.02666748 1.95808594 -0.05333496 2.96679688 -0.08081055 C11.85061197 -0.03602713 19.95030075 3.20030075 26.3125 9.5625 C27.125 11.8125 27.125 11.8125 27.3125 13.5625 C27.9725 13.5625 28.6325 13.5625 29.3125 13.5625 C29.98404933 14.85163487 30.64958859 16.14390204 31.3125 17.4375 C31.869375 18.51644531 31.869375 18.51644531 32.4375 19.6171875 C33.3125 21.5625 33.3125 21.5625 33.3125 23.5625 C32.6525 23.5625 31.9925 23.5625 31.3125 23.5625 C30.755625 22.985 30.19875 22.4075 29.625 21.8125 C20.82512469 13.25045916 8.44627669 12.31404635 -3.28051758 12.33117676 C-10.7165371 12.43906166 -17.88452146 13.72408926 -25.1875 15.0625 C-35.23615822 16.78968279 -45.08865735 18.07378476 -55.3125 18.125 C-56.7675293 18.14626953 -56.7675293 18.14626953 -58.25195312 18.16796875 C-63.86734702 18.08746131 -67.30038948 17.39523306 -71.6875 13.5625 C-73.56595423 11.28187019 -74.44093518 9.30494261 -75.6875 6.5625 C-75.3575 5.5725 -75.0275 4.5825 -74.6875 3.5625 C-73.945 4.036875 -73.2025 4.51125 -72.4375 5 C-60.71628889 11.65977904 -43.66220128 6.82057275 -31.32568359 4.02783203 C-20.87132255 1.67823557 -10.73627431 0.14893003 0 0 Z " fill="#8C55F8" transform="translate(121.6875,86.4375)"/>
<path d="M0 0 C0.63679688 0.43441406 1.27359375 0.86882812 1.9296875 1.31640625 C6.95227579 5.0995146 10.44886358 10.28051673 13 16 C12.67 16.66 12.34 17.32 12 18 C11.113125 17.113125 10.22625 16.22625 9.3125 15.3125 C-1.01209969 6.70525946 -12.92086324 5.71551361 -25.82763672 6.64404297 C-34.40222843 7.60616046 -42.82010593 9.57611259 -51.22265625 11.4921875 C-78.00585542 17.59939797 -78.00585542 17.59939797 -88 12 C-91.4522289 9.08478448 -94.01728342 6.07558407 -96 2 C-95.67 1.34 -95.34 0.68 -95 0 C-94.401875 0.474375 -93.80375 0.94875 -93.1875 1.4375 C-86.81640786 5.9882801 -77.48159219 4.4720803 -70.08203125 3.46875 C-63.20888033 2.27952634 -56.44554839 0.65209691 -49.6875 -1.0625 C-47.12529896 -1.70953588 -44.56276419 -2.35519316 -42 -3 C-40.65808594 -3.34611328 -40.65808594 -3.34611328 -39.2890625 -3.69921875 C-26.97889911 -6.43696802 -10.48412902 -8.00104583 0 0 Z " fill="#8C54F9" transform="translate(138,78)"/>
<path d="M0 0 C1.32 0 2.64 0 4 0 C6.13423585 4.26847169 5.26807393 9.90142706 5.29516602 14.63867188 C5.31232382 16.72854048 5.35620219 18.81680334 5.40039062 20.90625 C5.41052311 22.24478007 5.41903748 23.58332356 5.42578125 24.921875 C5.44036377 26.13456055 5.45494629 27.34724609 5.4699707 28.59667969 C4.90740188 32.67055468 3.54914298 34.81232011 1 38 C-1.25 39.375 -1.25 39.375 -3 40 C-3 40.66 -3 41.32 -3 42 C-7.48804676 44.24402338 -13.50640273 43.25362973 -18.3125 42.4375 C-22.52105671 40.18641153 -25.19778265 36.55613354 -26.62890625 31.99609375 C-27.40295071 27.83254935 -27.33576358 24.00729075 -26 20 C-25.34 20 -24.68 20 -24 20 C-23.67 18.68 -23.34 17.36 -23 16 C-22.34 16 -21.68 16 -21 16 C-21 15.34 -21 14.68 -21 14 C-17.5233662 11.85663839 -14.78770805 11.78722374 -10.75 11.875 C-9.67234375 11.89304687 -8.5946875 11.91109375 -7.484375 11.9296875 C-6.25460938 11.96449219 -6.25460938 11.96449219 -5 12 C-5 12.66 -5 13.32 -5 14 C-4.01 14.33 -3.02 14.66 -2 15 C-1.90912109 13.62714844 -1.90912109 13.62714844 -1.81640625 12.2265625 C-1.73261719 11.03804687 -1.64882812 9.84953125 -1.5625 8.625 C-1.48128906 7.44164062 -1.40007812 6.25828125 -1.31640625 5.0390625 C-1 2 -1 2 0 0 Z " fill="#101010" transform="translate(229,26)"/>
<path d="M0 0 C3.69230769 0.69230769 3.69230769 0.69230769 5 2 C5 4.31 5 6.62 5 9 C9.62 9 14.24 9 19 9 C19.33 10.65 19.66 12.3 20 14 C19 15 19 15 15.83984375 15.09765625 C13.90818359 15.08025391 13.90818359 15.08025391 11.9375 15.0625 C10.64714844 15.05347656 9.35679687 15.04445313 8.02734375 15.03515625 C7.02832031 15.02355469 6.02929688 15.01195312 5 15 C5.0872605 17.25071906 5.19544115 19.50063388 5.3125 21.75 C5.37050781 23.00296875 5.42851562 24.2559375 5.48828125 25.546875 C6.01313302 29.08862283 6.36525429 30.61535156 9 33 C11.38618808 33.76984368 11.38618808 33.76984368 14 33.875 C14.86625 33.95492187 15.7325 34.03484375 16.625 34.1171875 C19.2704411 34.19022106 19.2704411 34.19022106 22 32 C24.1875 32.375 24.1875 32.375 26 33 C26 33.66 26 34.32 26 35 C32.27 35 38.54 35 45 35 C44.505 32.03 44.505 32.03 44 29 C43.26394531 28.97421875 42.52789062 28.9484375 41.76953125 28.921875 C31.95587676 28.35146444 31.95587676 28.35146444 28 24 C26.43528767 20.87057535 26.30298042 17.38917777 27 14 C28.44140625 11.7578125 28.44140625 11.7578125 31 10 C34.09944804 9.51738828 37.12302076 9.62296647 40.25 9.75 C41.09046875 9.76804687 41.9309375 9.78609375 42.796875 9.8046875 C44.86507395 9.85169202 46.93268441 9.92343276 49 10 C49.5625 11.9375 49.5625 11.9375 50 14 C48.00383446 15.99616554 44.18298037 15.40983427 41.4375 15.5625 C40.72658203 15.60568359 40.01566406 15.64886719 39.28320312 15.69335938 C37.52238088 15.79971777 35.7612168 15.90038846 34 16 C33.67 17.98 33.34 19.96 33 22 C33.88042969 21.94199219 34.76085937 21.88398437 35.66796875 21.82421875 C45.0747331 21.45880615 45.0747331 21.45880615 49.3125 23.9375 C51.57934003 28.05139487 51.94550032 31.40143027 51 36 C48.80168636 39.03215675 47.55036806 39.81654398 44 41 C41.13257236 41.14777625 38.30539943 41.23096 35.4375 41.25 C34.65697266 41.270625 33.87644531 41.29125 33.07226562 41.3125 C30.80859375 41.328125 30.80859375 41.328125 27 41 C26.34 40.01 25.68 39.02 25 38 C24.46117187 38.48597656 23.92234375 38.97195312 23.3671875 39.47265625 C19.01566334 42.28032283 13.99099555 41.60132477 9 41 C3.60557694 38.44474697 1.58471304 35.16942608 -1 30 C-1.09755284 27.83377475 -1.13077109 25.66451351 -1.1328125 23.49609375 C-1.13410156 22.19865234 -1.13539063 20.90121094 -1.13671875 19.56445312 C-1.13462402 18.88777588 -1.1325293 18.21109863 -1.13037109 17.51391602 C-1.12501202 15.44214585 -1.13032518 13.37059161 -1.13671875 11.29882812 C-1.13542969 10.00267578 -1.13414062 8.70652344 -1.1328125 7.37109375 C-1.13168457 6.17411865 -1.13055664 4.97714355 -1.12939453 3.74389648 C-1 1 -1 1 0 0 Z " fill="#0F0F0F" transform="translate(303,28)"/>
<path d="M0 0 C4.40982614 1.88992549 7.17118217 4.25948255 9.25 8.625 C10.91290624 16.10807806 10.05945548 22.65325597 8.25 30.0625 C8.09321777 30.7107373 7.93643555 31.35897461 7.77490234 32.02685547 C6.39787172 37.28808944 4.29319372 42.0804004 2 47 C1.24858538 48.66661593 0.49728536 50.33328354 -0.25390625 52 C-1.02227968 53.66720076 -1.79181566 55.33386622 -2.5625 57 C-2.94857422 57.85722656 -3.33464844 58.71445313 -3.73242188 59.59765625 C-4.29993164 60.81775391 -4.29993164 60.81775391 -4.87890625 62.0625 C-5.2147876 62.79597656 -5.55066895 63.52945313 -5.89672852 64.28515625 C-7 66 -7 66 -10 67 C-11.39439664 67.06665376 -12.79169875 67.08538199 -14.1875 67.0625 C-15.445625 67.041875 -16.70375 67.02125 -18 67 C-17.47764619 62.07494982 -15.82465454 58.46580406 -13.375 54.25 C-8.68094237 45.83972455 -5.26626126 37.04378605 -2 28 C-1.61972656 27.00097656 -1.23945312 26.00195312 -0.84765625 24.97265625 C0.19207435 21.32641207 0.49286739 17.76525636 0.6875 14 C0.73455078 13.31421875 0.78160156 12.6284375 0.83007812 11.921875 C1.07056075 7.79030463 0.84159504 4.04978062 0 0 Z " fill="#727272" transform="translate(72,14)"/>
<path d="M0 0 C4.12571097 1.86263716 7.79902061 4.08071331 10.234375 7.97265625 C11.38131234 11.00969952 11.18151607 13.79321609 11 17 C10 18 10 18 7.68334961 18.11352539 C6.68311768 18.10828857 5.68288574 18.10305176 4.65234375 18.09765625 C3.57275391 18.09443359 2.49316406 18.09121094 1.38085938 18.08789062 C0.24455078 18.07951172 -0.89175781 18.07113281 -2.0625 18.0625 C-3.20267578 18.05798828 -4.34285156 18.05347656 -5.51757812 18.04882812 C-8.34510351 18.03699747 -11.1725264 18.0205141 -14 18 C-12.19587357 21.26460973 -11.16605307 22.88929795 -8 25 C-5.9507906 25.45139459 -5.9507906 25.45139459 -3.8125 25.625 C-2.554375 25.74875 -1.29625 25.8725 0 26 C0 25.34 0 24.68 0 24 C1.65 24.33 3.3 24.66 5 25 C5 26.32 5 27.64 5 29 C0.32237483 32.11841678 -4.52374948 31.58751827 -10 31 C-14.49948566 28.83060513 -17.19147133 26.09359044 -20 22 C-21.11685083 16.64870861 -21.29259051 11.22594159 -18.49609375 6.41015625 C-12.97041796 0.030827 -8.38710076 -1.1808155 0 0 Z " fill="#141414" transform="translate(256,38)"/>
<path d="M0 0 C0.72380859 -0.00773437 1.44761719 -0.01546875 2.19335938 -0.0234375 C7.55902778 -0.00347222 7.55902778 -0.00347222 9.8125 2.25 C9.8125 3.24 9.8125 4.23 9.8125 5.25 C7.57602369 6.36823815 6.16358471 6.44396061 3.6796875 6.56640625 C2.87402344 6.60830078 2.06835938 6.65019531 1.23828125 6.69335938 C0.39652344 6.73267578 -0.44523437 6.77199219 -1.3125 6.8125 C-2.16199219 6.85568359 -3.01148437 6.89886719 -3.88671875 6.94335938 C-5.98678223 7.04954236 -8.08711948 7.15028497 -10.1875 7.25 C-10.208125 8.508125 -10.22875 9.76625 -10.25 11.0625 C-10.26160156 11.77019531 -10.27320312 12.47789063 -10.28515625 13.20703125 C-10.27013217 15.45305461 -10.27013217 15.45305461 -9.1875 18.25 C-8.35605469 18.23839844 -7.52460937 18.22679688 -6.66796875 18.21484375 C-5.58128906 18.20582031 -4.49460937 18.19679688 -3.375 18.1875 C-2.29605469 18.17589844 -1.21710938 18.16429688 -0.10546875 18.15234375 C2.8125 18.25 2.8125 18.25 5.8125 19.25 C5.8125 19.91 5.8125 20.57 5.8125 21.25 C6.43125 21.518125 7.05 21.78625 7.6875 22.0625 C9.8125 23.25 9.8125 23.25 11.8125 26.25 C12.27599323 30.96218117 12.28174884 33.29345429 10.1875 37.5625 C7.24132397 40.89633078 4.36620094 42.9217665 -0.15722656 43.50317383 C-2.27970129 43.57961678 -4.37719107 43.56181063 -6.5 43.5 C-7.59151367 43.49226563 -7.59151367 43.49226563 -8.70507812 43.484375 C-14.03256563 43.40493437 -14.03256563 43.40493437 -15.1875 42.25 C-15.22813832 40.58382885 -15.230221 38.91611905 -15.1875 37.25 C-13.91132812 37.20101562 -12.63515625 37.15203125 -11.3203125 37.1015625 C-9.65101928 37.02653809 -7.98174954 36.95099012 -6.3125 36.875 C-5.47074219 36.8440625 -4.62898438 36.813125 -3.76171875 36.78125 C-2.55322266 36.72324219 -2.55322266 36.72324219 -1.3203125 36.6640625 C-0.57668457 36.6326416 0.16694336 36.6012207 0.93310547 36.56884766 C3.05260974 36.39580449 3.05260974 36.39580449 4.8125 34.25 C5.14583333 30.75 5.14583333 30.75 4.8125 27.25 C1.72385402 24.16135402 -2.40459725 24.54449045 -6.6015625 24.21484375 C-9.93480174 23.86708454 -11.93315696 23.44837111 -14.6015625 21.3671875 C-17.58136701 17.38922187 -17.84230726 13.06101442 -17.1875 8.25 C-15.52653996 4.92807991 -14.35186374 2.87696509 -11.0546875 1.1015625 C-7.35229036 0.00194046 -3.82473714 -0.04153561 0 0 Z " fill="#141414" transform="translate(128.1875,25.75)"/>
<path d="M0 0 C3.3734229 1.44575267 5.61595146 3.2049086 8 6 C11.61211094 16.33729117 8.71918711 28.21802843 5 38 C4.66484375 38.9075 4.3296875 39.815 3.984375 40.75 C1.96629274 46.00342048 -0.41046546 51.00589768 -3 56 C-3.66 56 -4.32 56 -5 56 C-4.83242188 55.38511719 -4.66484375 54.77023438 -4.4921875 54.13671875 C-4.28851563 53.32847656 -4.08484375 52.52023438 -3.875 51.6875 C-3.66617188 50.88699219 -3.45734375 50.08648437 -3.2421875 49.26171875 C-2.72572666 46.71792767 -2.72572666 46.71792767 -5 44 C-5.66 46.64 -6.32 49.28 -7 52 C-8.98 52.495 -8.98 52.495 -11 53 C-11.57517128 47.24828725 -9.64051516 43.88314447 -7 39 C-1.31023056 27.88306585 2.25036704 15.54466603 1 3 C0.67 2.01 0.34 1.02 0 0 Z " fill="#6F6F6F" transform="translate(62,8)"/>
<path d="M0 0 C2.0625 0.4375 2.0625 0.4375 4 1 C4 3.64 4 6.28 4 9 C9.28 9 14.56 9 20 9 C20 10.65 20 12.3 20 14 C19 15 19 15 15.83984375 15.09765625 C13.90818359 15.08025391 13.90818359 15.08025391 11.9375 15.0625 C10.64714844 15.05347656 9.35679687 15.04445313 8.02734375 15.03515625 C7.02832031 15.02355469 6.02929688 15.01195312 5 15 C5.14179038 17.22942748 5.28859698 19.45853628 5.4375 21.6875 C5.51871094 22.92886719 5.59992188 24.17023437 5.68359375 25.44921875 C5.94491317 28.38180337 6.34798379 31.13441617 7 34 C8.97909398 34.02686553 10.95828971 34.04633375 12.9375 34.0625 C14.03964844 34.07410156 15.14179688 34.08570313 16.27734375 34.09765625 C18.91447634 34.31262571 18.91447634 34.31262571 20 33 C21.66617115 32.95936168 23.33388095 32.957279 25 33 C25 34.65 25 36.3 25 38 C19.94091155 41.1132852 15.78847418 41.75863306 10 41 C5.28121312 39.30835942 2.79417183 37.13951382 0 33 C-1.13324094 29.60027717 -1.12942456 26.98142899 -1.1328125 23.3984375 C-1.13410156 22.10421875 -1.13539063 20.81 -1.13671875 19.4765625 C-1.13462402 18.80399414 -1.1325293 18.13142578 -1.13037109 17.43847656 C-1.1250015 15.37557685 -1.1303336 13.31289311 -1.13671875 11.25 C-1.13542969 9.95835938 -1.13414062 8.66671875 -1.1328125 7.3359375 C-1.13168457 6.14532715 -1.13055664 4.9547168 -1.12939453 3.72802734 C-1 1 -1 1 0 0 Z " fill="#131313" transform="translate(144,28)"/>
<path d="M0 0 C1.65 0 3.3 0 5 0 C6.53300114 1.53300114 6.16196836 2.97952979 6.2109375 5.11328125 C6.23929688 5.94923828 6.26765625 6.78519531 6.296875 7.64648438 C6.34860898 9.41190646 6.39298196 11.1775609 6.4296875 12.94335938 C6.56129857 16.51605153 6.68693987 19.31498723 8.18359375 22.58984375 C10.74224342 24.57623629 12.49061557 24.40044162 15.6875 24.25 C16.68136719 24.21390625 17.67523438 24.1778125 18.69921875 24.140625 C19.45847656 24.09421875 20.21773437 24.0478125 21 24 C21 23.34 21 22.68 21 22 C21.66 22 22.32 22 23 22 C23.33 14.74 23.66 7.48 24 0 C25.65 0 27.3 0 29 0 C29.11681812 3.54138618 29.187455 7.0822724 29.25 10.625 C29.30027344 12.12353516 29.30027344 12.12353516 29.3515625 13.65234375 C29.43071691 19.62850183 29.18539423 23.36094416 25 28 C22.05222852 30.81728662 20.11106493 31.39359606 16.0625 31.3125 C10.92821676 31.13909543 7.68074163 30.40818893 3.6875 27.0625 C2 25 2 25 2 22 C1.34 22 0.68 22 0 22 C0 14.74 0 7.48 0 0 Z " fill="#1B1B1B" transform="translate(171,38)"/>
<path d="M0 0 C3.4143065 2.06852145 5.39597048 3.61739322 7.640625 6.984375 C8.75968163 11.78435373 8.76066292 16.46422553 8.703125 21.359375 C8.69861328 22.09542969 8.69410156 22.83148438 8.68945312 23.58984375 C8.67777642 25.38805658 8.65984511 27.18622697 8.640625 28.984375 C6.98447843 29.36656267 5.31605476 29.69832602 3.640625 29.984375 C1.39257111 27.73632111 2.28646156 21.61695212 2.2109375 18.41796875 C2.00316129 13.40536773 1.35868443 9.70243443 -2.359375 5.984375 C-4.35686819 5.70727573 -4.35686819 5.70727573 -6.671875 5.671875 C-7.45175781 5.63449219 -8.23164063 5.59710938 -9.03515625 5.55859375 C-11.46062032 5.85462358 -11.46062032 5.85462358 -13.60546875 7.39453125 C-16.26167513 11.31672464 -16.03399509 15.09508397 -16.109375 19.734375 C-16.13902344 20.62253906 -16.16867187 21.51070312 -16.19921875 22.42578125 C-16.26974418 24.61206949 -16.32252137 26.79730268 -16.359375 28.984375 C-18.296875 29.546875 -18.296875 29.546875 -20.359375 29.984375 C-22.71244026 27.63130974 -21.68787243 22.01309473 -21.734375 18.859375 C-21.77175781 17.9209375 -21.80914062 16.9825 -21.84765625 16.015625 C-21.9188067 10.3710229 -21.40241356 6.68034907 -17.70654297 2.29174805 C-13.01057282 -2.2655046 -5.85989554 -2.52247159 0 0 Z " fill="#161616" transform="translate(290.359375,39.015625)"/>
<path d="M0 0 C0.66 0 1.32 0 2 0 C2.10823773 2.24893954 2.18569645 4.49937575 2.25 6.75 C2.29640625 8.00296875 2.3428125 9.2559375 2.390625 10.546875 C2 14 2 14 0.171875 16.421875 C-2 18 -2 18 -5 18.5 C-8.5944274 17.90092877 -9.73943528 16.7822335 -12 14 C-12.37125 14.66 -12.7425 15.32 -13.125 16 C-15 18 -15 18 -18 18.4375 C-21.19410622 17.97169284 -22.10442866 17.52742845 -24 15 C-24.33 15.99 -24.66 16.98 -25 18 C-25.99 18 -26.98 18 -28 18 C-28 14.37 -28 10.74 -28 7 C-29.32 7 -30.64 7 -32 7 C-32 10.3 -32 13.6 -32 17 C-32.66 17 -33.32 17 -34 17 C-34 13.37 -34 9.74 -34 6 C-27.375 4.75 -27.375 4.75 -24 7 C-23.01 6.34 -22.02 5.68 -21 5 C-16.84130536 5.29704962 -14.49592778 5.66938148 -11 8 C-10.46375 7.484375 -9.9275 6.96875 -9.375 6.4375 C-7 5 -7 5 -3.75 5.3125 C-2.8425 5.539375 -1.935 5.76625 -1 6 C-0.67 4.02 -0.34 2.04 0 0 Z " fill="#A684EA" transform="translate(249,78)"/>
<path d="M0 0 C3.49890004 2.11391877 4.70578686 3.11736059 6 7 C6.03954234 9.33299825 6.04401732 11.66708189 6 14 C5.34 14 4.68 14 4 14 C3.71125 14.639375 3.4225 15.27875 3.125 15.9375 C2 18 2 18 0 19 C-3.05686964 19.41309049 -5.95118586 19.49909413 -9 19 C-12.11048503 16.04503922 -13.86932303 13.47011592 -14.25 9.1875 C-13.96929042 5.60845281 -13.12271416 3.85749983 -11 1 C-7.53984865 -0.73007568 -3.78327445 -0.4835273 0 0 Z " fill="#F8F8F8" transform="translate(222,44)"/>
<path d="M0 0 C3.04812451 2.32985359 4.50924746 3.51612614 5.09765625 7.3828125 C4.95328125 8.0840625 4.80890625 8.7853125 4.66015625 9.5078125 C4.41265625 8.8890625 4.16515625 8.2703125 3.91015625 7.6328125 C2.40245595 5.069722 1.30778579 4.75794997 -1.33984375 3.5078125 C-3.39197081 2.24345015 -5.41367864 0.93798072 -7.4375 -0.37109375 C-21.08679799 -8.41493056 -45.11967825 -1.26138767 -59.41357422 1.87524414 C-66.84001511 3.48060943 -73.97854369 4.79756957 -81.58984375 4.8203125 C-83.54664063 4.84544922 -83.54664063 4.84544922 -85.54296875 4.87109375 C-89.85059665 4.45894417 -92.4699537 3.36879538 -96.33984375 1.5078125 C-97.66260431 1.13472619 -98.99216452 0.77734835 -100.33984375 0.5078125 C-100.00984375 -0.8121875 -99.67984375 -2.1321875 -99.33984375 -3.4921875 C-98.80875 -3.21503906 -98.27765625 -2.93789062 -97.73046875 -2.65234375 C-97.0240625 -2.29011719 -96.31765625 -1.92789063 -95.58984375 -1.5546875 C-94.89375 -1.19503906 -94.19765625 -0.83539063 -93.48046875 -0.46484375 C-81.7085484 4.88407626 -66.60498302 -0.01778612 -54.64453125 -2.8046875 C-36.12293797 -7.06219567 -16.94837714 -10.80848091 0 0 Z " fill="#EEDAFE" transform="translate(145.33984375,90.4921875)"/>
<path d="M0 0 C4.40982614 1.88992549 7.17118217 4.25948255 9.25 8.625 C11.02608865 16.61739893 9.87646964 24.1255292 8 32 C7.071875 32.1546875 7.071875 32.1546875 6.125 32.3125 C3.63473516 32.87525373 3.63473516 32.87525373 2 36 C1.01 36 0.02 36 -1 36 C-3.41145089 31.17709822 -1.03697925 23.94831138 0.0625 18.875 C1.42267934 12.39892226 1.30471912 6.52359562 0 0 Z " fill="#3F3F3F" transform="translate(72,14)"/>
<path d="M0 0 C0.33 0 0.66 0 1 0 C1.10826289 2.4178712 1.18739789 4.83087556 1.25 7.25 C1.30027344 8.27287109 1.30027344 8.27287109 1.3515625 9.31640625 C1.4215705 12.92181813 1.29151719 14.64068812 -1.015625 17.484375 C-1.67046875 17.98453125 -2.3253125 18.4846875 -3 19 C-3.99 18.34 -4.98 17.68 -6 17 C-8.74518321 16.75812349 -8.74518321 16.75812349 -11.6875 16.875 C-12.68136719 16.89304687 -13.67523438 16.91109375 -14.69921875 16.9296875 C-15.45847656 16.95289062 -16.21773437 16.97609375 -17 17 C-19.81159086 23.62732131 -19.13695279 28.32202254 -17 35 C-20.64478912 35 -22.09303401 34.14197494 -25 32 C-26.96584175 27.76587931 -26.43614894 22.30844683 -25 18 C-24.34 18 -23.68 18 -23 18 C-22.67 16.68 -22.34 15.36 -22 14 C-21.34 14 -20.68 14 -20 14 C-20 13.34 -20 12.68 -20 12 C-16.5233662 9.85663839 -13.78770805 9.78722374 -9.75 9.875 C-8.67234375 9.89304687 -7.5946875 9.91109375 -6.484375 9.9296875 C-5.25460938 9.96449219 -5.25460938 9.96449219 -4 10 C-4 10.66 -4 11.32 -4 12 C-3.01 12.33 -2.02 12.66 -1 13 C-0.67 8.71 -0.34 4.42 0 0 Z " fill="#161616" transform="translate(228,28)"/>
<path d="M0 0 C1.6875 1.4375 1.6875 1.4375 3 4 C2.35087445 7.14284955 1.23221253 10.04268993 0 13 C0.66 13.33 1.32 13.66 2 14 C1.043419 15.77178053 0.08467012 17.54239076 -0.875 19.3125 C-1.40867187 20.29863281 -1.94234375 21.28476563 -2.4921875 22.30078125 C-4 25 -4 25 -6 28 C-7.32 27.67 -8.64 27.34 -10 27 C-10 26.34 -10 25.68 -10 25 C-11.32 25 -12.64 25 -14 25 C-13.67422369 17.83292123 -10.34556372 12.23072876 -7 6 C-6.01 7.485 -6.01 7.485 -5 9 C-2.3534665 6.3534665 -1.40058003 3.43778736 0 0 Z " fill="#A4A4A4" transform="translate(57,51)"/>
<path d="M0 0 C3.3734229 1.44575267 5.61595146 3.2049086 8 6 C10.34056745 12.56276755 10.29948531 23.01981198 7.5 29.4375 C7.005 30.283125 6.51 31.12875 6 32 C5.34 32 4.68 32 4 32 C3.67 32.66 3.34 33.32 3 34 C2.67 33.34 2.34 32.68 2 32 C1.01 32.495 1.01 32.495 0 33 C-0.02717692 30.93757383 -0.0464758 28.87504297 -0.0625 26.8125 C-0.07410156 25.66394531 -0.08570313 24.51539062 -0.09765625 23.33203125 C-0.01128079 20.38490069 0.41106155 17.8716456 1 15 C1.09008251 12.95989607 1.13011801 10.91708538 1.125 8.875 C1.12757812 7.84117188 1.13015625 6.80734375 1.1328125 5.7421875 C1.11919881 2.90765695 1.11919881 2.90765695 0 0 Z " fill="#262626" transform="translate(62,8)"/>
<path d="M0 0 C0.33 0 0.66 0 1 0 C4.18914678 19.1884798 -3.69674317 34.50877797 -12.86328125 50.9609375 C-14.65380834 54.21574835 -15.97035621 57.41615698 -17 61 C-12.05 60.505 -12.05 60.505 -7 60 C-7 60.99 -7 61.98 -7 63 C-9.20770805 63.08165496 -11.41630425 63.13948488 -13.625 63.1875 C-15.46964844 63.23970703 -15.46964844 63.23970703 -17.3515625 63.29296875 C-21.26407664 62.9787947 -23.64070218 61.96906533 -27 60 C-27 59.01 -27 58.02 -27 57 C-25.515 56.505 -25.515 56.505 -24 56 C-24 56.66 -24 57.32 -24 58 C-22.68 58 -21.36 58 -20 58 C-19.47212891 56.94425781 -19.47212891 56.94425781 -18.93359375 55.8671875 C-18.43988281 54.87976563 -17.94617187 53.89234375 -17.4375 52.875 C-16.61958984 51.23337891 -16.61958984 51.23337891 -15.78515625 49.55859375 C-14.59711611 47.19031242 -13.39660476 44.82824538 -12.18359375 42.47265625 C-8.59287456 35.45407986 -5.38627317 28.52037604 -3 21 C-2.78601563 20.34 -2.57203125 19.68 -2.3515625 19 C-0.57235105 12.81143842 -0.37066224 6.39880081 0 0 Z " fill="#F0E5F6" transform="translate(71,20)"/>
<path d="M0 0 C0.80244141 0.00966797 1.60488281 0.01933594 2.43164062 0.02929688 C3.26501953 0.05443359 4.09839844 0.07957031 4.95703125 0.10546875 C6.22450195 0.12577148 6.22450195 0.12577148 7.51757812 0.14648438 C9.60183509 0.18181076 11.68576402 0.23561736 13.76953125 0.29296875 C14.09953125 1.61296875 14.42953125 2.93296875 14.76953125 4.29296875 C13.82078125 4.12796875 12.87203125 3.96296875 11.89453125 3.79296875 C8.96784224 3.24030525 8.96784224 3.24030525 6.76953125 3.29296875 C7.42953125 5.60296875 8.08953125 7.91296875 8.76953125 10.29296875 C10.74953125 10.29296875 12.72953125 10.29296875 14.76953125 10.29296875 C14.43953125 11.28296875 14.10953125 12.27296875 13.76953125 13.29296875 C10.83178662 13.34687232 7.89502893 13.38659425 4.95703125 13.41796875 C4.12365234 13.43472656 3.29027344 13.45148438 2.43164062 13.46875 C1.62919922 13.47519531 0.82675781 13.48164062 0 13.48828125 C-1.10758667 13.5039917 -1.10758667 13.5039917 -2.23754883 13.52001953 C-4.23046875 13.29296875 -4.23046875 13.29296875 -7.23046875 11.29296875 C-7.90997291 4.15817509 -7.90997291 4.15817509 -5.9699707 1.68798828 C-3.80470618 -0.0484779 -2.74471922 -0.05839828 0 0 Z " fill="#F6EBFD" transform="translate(178.23046875,82.70703125)"/>
<path d="M0 0 C3.4375 0.8125 3.4375 0.8125 5.4375 3.8125 C5.953125 3.131875 6.46875 2.45125 7 1.75 C9.4375 -0.1875 9.4375 -0.1875 13.0625 -0.125 C16.4375 0.8125 16.4375 0.8125 18.4375 3.8125 C18.6328125 6.07421875 18.6328125 6.07421875 18.5625 8.5 C18.54445313 9.30824219 18.52640625 10.11648437 18.5078125 10.94921875 C18.48460937 11.56410156 18.46140625 12.17898437 18.4375 12.8125 C17.7775 12.8125 17.1175 12.8125 16.4375 12.8125 C16.1075 9.8425 15.7775 6.8725 15.4375 3.8125 C13.78135343 3.43031233 12.11292976 3.09854898 10.4375 2.8125 C8.85477399 4.39522601 9.09014253 6.19284003 8.875 8.375 C8.79121094 9.20128906 8.70742188 10.02757813 8.62109375 10.87890625 C8.53021484 11.83603516 8.53021484 11.83603516 8.4375 12.8125 C7.4475 12.4825 6.4575 12.1525 5.4375 11.8125 C5.1075 11.1525 4.7775 10.4925 4.4375 9.8125 C4.086875 10.328125 3.73625 10.84375 3.375 11.375 C1.4375 12.8125 1.4375 12.8125 -2.125 12.6875 C-5.5625 11.8125 -5.5625 11.8125 -7.5625 8.8125 C-7.375 5.25 -7.375 5.25 -6.5625 1.8125 C-3.5625 -0.1875 -3.5625 -0.1875 0 0 Z " fill="#8A6AD8" transform="translate(289.5625,83.1875)"/>
<path d="M0 0 C5.93988754 0.36366658 9.58483761 1.97862237 14 6 C16.60208639 9.39402572 16.23567242 12.8364539 16 17 C13.75145286 19.24854714 8.58199156 18.23248301 5.5625 18.25 C4.23508789 18.2809375 4.23508789 18.2809375 2.88085938 18.3125 C1.61145508 18.32023437 1.61145508 18.32023437 0.31640625 18.328125 C-0.46275146 18.3374707 -1.24190918 18.34681641 -2.04467773 18.35644531 C-3.01256226 18.18000488 -3.01256226 18.18000488 -4 18 C-4.66 17.01 -5.32 16.02 -6 15 C-2.93466836 13.46733418 0.26754272 13.89723529 3.625 13.9375 C4.68460938 13.94426758 4.68460938 13.94426758 5.765625 13.95117188 C7.51045275 13.96296125 9.255237 13.98089676 11 14 C10.505 13.21625 10.01 12.4325 9.5 11.625 C8 9 8 9 8 7 C3.545 6.01 3.545 6.01 -1 5 C-1 2 -1 2 0 0 Z " fill="#0A0A0A" transform="translate(251,38)"/>
<path d="M0 0 C0.33 0 0.66 0 1 0 C1.04898438 0.62648437 1.09796875 1.25296875 1.1484375 1.8984375 C1.22320312 2.71570312 1.29796875 3.53296875 1.375 4.375 C1.44460937 5.18710937 1.51421875 5.99921875 1.5859375 6.8359375 C1.82892588 9.20334191 1.82892588 9.20334191 4 11 C4.66 10.01 5.32 9.02 6 8 C7 11 7 11 5.890625 13.8828125 C5.34921875 14.95273438 4.8078125 16.02265625 4.25 17.125 C3.71890625 18.20007813 3.1878125 19.27515625 2.640625 20.3828125 C1 23 1 23 -2 24 C-3.39439664 24.06665376 -4.79169875 24.08538199 -6.1875 24.0625 C-8.0746875 24.0315625 -8.0746875 24.0315625 -10 24 C-9.4702485 18.66109821 -7.58987722 14.89006271 -5 10.3125 C-2.17375163 5.3086063 -2.17375163 5.3086063 0 0 Z " fill="#9A9A9A" transform="translate(64,57)"/>
<path d="M0 0 C1.5625 1.25 1.5625 1.25 3 3 C3.721875 3.721875 4.44375 4.44375 5.1875 5.1875 C5.785625 5.785625 6.38375 6.38375 7 7 C-1.97756951 8.3300103 -10.94831966 8.08788039 -20 8 C-20 7.34 -20 6.68 -20 6 C-20.598125 5.855625 -21.19625 5.71125 -21.8125 5.5625 C-23.56150404 5.1127561 -25.28677023 4.57107659 -27 4 C-27 3.01 -27 2.02 -27 1 C-25.83082031 1.01160156 -24.66164062 1.02320312 -23.45703125 1.03515625 C-21.90885577 1.04453913 -20.36067855 1.0536388 -18.8125 1.0625 C-18.04357422 1.07087891 -17.27464844 1.07925781 -16.48242188 1.08789062 C-10.95045109 1.11163299 -5.4329584 -0.57189036 0 0 Z " fill="#8B52FD" transform="translate(75,83)"/>
<path d="M0 0 C8.88260138 3.24706694 14.41461238 8.76651293 19.1015625 16.86328125 C19.54628906 17.92095703 19.54628906 17.92095703 20 19 C19.67 19.66 19.34 20.32 19 21 C18.113125 20.113125 17.22625 19.22625 16.3125 18.3125 C4.04068687 8.14235565 -9.93285595 9.40129333 -25 10 C-25 9.34 -25 8.68 -25 8 C-17.08 8 -9.16 8 -1 8 C-0.67 5.36 -0.34 2.72 0 0 Z " fill="#8D5AF2" transform="translate(131,75)"/>
<path d="M0 0 C2.1484375 1.59765625 2.1484375 1.59765625 4 4 C4.390625 7.234375 4.390625 7.234375 4.25 10.75 C4.21390625 11.92046875 4.1778125 13.0909375 4.140625 14.296875 C4.07101563 15.63492188 4.07101563 15.63492188 4 17 C3.34 17 2.68 17 2 17 C2 15.68 2 14.36 2 13 C-0.97 13 -3.94 13 -7 13 C-7 14.65 -7 16.3 -7 18 C-7.66 18 -8.32 18 -9 18 C-9.05441656 16.10448978 -9.09298035 14.2085208 -9.125 12.3125 C-9.14820313 11.25675781 -9.17140625 10.20101562 -9.1953125 9.11328125 C-8.99653524 5.94477177 -8.44874543 3.81137662 -7 1 C-4.4086487 -0.29567565 -2.87704151 -0.34250494 0 0 Z " fill="#8A66E0" transform="translate(165,78)"/>
<path d="M0 0 C0.33 0.99 0.66 1.98 1 3 C-0.18408203 4.47485352 -0.18408203 4.47485352 -1.8828125 6.06640625 C-5.8325788 10.40795098 -5.89228806 14.25405105 -5.875 19.9375 C-5.895625 20.81212891 -5.91625 21.68675781 -5.9375 22.58789062 C-5.98420953 24.72485152 -5.99572934 26.86253294 -6 29 C-7.9375 29.5625 -7.9375 29.5625 -10 30 C-12.35306526 27.64693474 -11.32849743 22.02871973 -11.375 18.875 C-11.41238281 17.9365625 -11.44976562 16.998125 -11.48828125 16.03125 C-11.57266567 9.33675247 -10.51037347 5.99798142 -6 1 C-4 0 -4 0 0 0 Z " fill="#0A0A0A" transform="translate(280,39)"/>
<path d="M0 0 C0.66 0 1.32 0 2 0 C2.10823773 2.24893954 2.18569645 4.49937575 2.25 6.75 C2.29640625 8.00296875 2.3428125 9.2559375 2.390625 10.546875 C2 14 2 14 0.171875 16.41796875 C-2 18 -2 18 -5 18.5625 C-8 18 -8 18 -10.3125 15.8125 C-11.95018857 13.08301905 -12.64161802 11.13584232 -13 8 C-9.73318581 6.1152995 -6.74305571 5.40685388 -3 5 C-2.34 5.33 -1.68 5.66 -1 6 C-0.67 4.02 -0.34 2.04 0 0 Z " fill="#906EDF" transform="translate(249,78)"/>
<path d="M0 0 C1.03833984 -0.03738281 2.07667969 -0.07476562 3.14648438 -0.11328125 C12.14483587 -0.21483004 18.01758781 2.48250811 25.375 7.4375 C27.39937684 9.46187684 28.01083707 10.5594793 28.3125 13.375 C28.9725 13.375 29.6325 13.375 30.3125 13.375 C30.98404933 14.66413487 31.64958859 15.95640204 32.3125 17.25 C32.68375 17.96929687 33.055 18.68859375 33.4375 19.4296875 C34.3125 21.375 34.3125 21.375 34.3125 23.375 C33.6525 23.375 32.9925 23.375 32.3125 23.375 C31.755625 22.7975 31.19875 22.22 30.625 21.625 C25.22846005 16.37431248 19.55144878 14.62252859 12.3125 13.375 C12.3125 13.045 12.3125 12.715 12.3125 12.375 C20.0625 12.25 20.0625 12.25 22.3125 13.375 C21.8175 12.385 21.8175 12.385 21.3125 11.375 C20.3225 11.045 19.3325 10.715 18.3125 10.375 C19.3025 10.045 20.2925 9.715 21.3125 9.375 C20.8175 8.92125 20.3225 8.4675 19.8125 8 C18.3125 6.375 18.3125 6.375 18.3125 4.375 C10.33344584 2.61203549 2.78092799 2.12014444 -5.375 2.25 C-6.47005859 2.25902344 -7.56511719 2.26804687 -8.69335938 2.27734375 C-11.35831354 2.30061846 -14.02278134 2.33330865 -16.6875 2.375 C-16.6875 2.045 -16.6875 1.715 -16.6875 1.375 C-11.11864138 0.13188948 -5.68631325 0.07623333 0 0 Z " fill="#8C5EEC" transform="translate(120.6875,86.625)"/>
<path d="M0 0 C0.66 0 1.32 0 2 0 C2 1.98 2 3.96 2 6 C3.3303125 5.62875 3.3303125 5.62875 4.6875 5.25 C8 5 8 5 10.875 6.625 C13 9 13 9 13.625 11.5 C13 14 13 14 10.875 16.375 C8 18 8 18 4.8125 17.875 C2 17 2 17 0 15 C-0.14497985 12.41935871 -0.18677545 9.95056116 -0.125 7.375 C-0.11597656 6.66859375 -0.10695313 5.9621875 -0.09765625 5.234375 C-0.07407603 3.48943902 -0.03820461 1.74467705 0 0 Z " fill="#8D6AE1" transform="translate(344,78)"/>
<path d="M0 0 C1.875 1.5 1.875 1.5 3 4 C3.23364755 6.72069588 3.13706692 9.25866151 3 12 C-0.40249424 13.04692131 -3.4516955 13.3774792 -7 13 C-9.58525068 10.75944941 -9.95386189 9.3229668 -10.4375 5.9375 C-10 3 -10 3 -8.375 1.125 C-5.30991468 -0.32688252 -3.35223905 -0.49926965 0 0 Z " fill="#9171DF" transform="translate(262,83)"/>
<path d="M0 0 C2 2 2 2 2.375 4.875 C2 8 2 8 0.375 10.375 C-2.69371124 12.47464453 -4.35392711 12.62060815 -8 12 C-9.9375 10.375 -9.9375 10.375 -11 8 C-10.87230149 4.87138639 -10.44822217 2.77193818 -8.875 0.0625 C-5.80365094 -1.67793113 -3.31631617 -0.78385655 0 0 Z " fill="#8B6BD7" transform="translate(205,84)"/>
<path d="M0 0 C1.546875 0.99 1.546875 0.99 3.125 2 C12.2010672 6.5380336 24.23830158 4.00119984 34 3 C29.6443661 7.3556339 22.60648331 7.13688842 16.75 7.1875 C13.02565923 7.16286812 9.63253698 6.82858964 6 6 C6 6.99 6 7.98 6 9 C6.598125 9.144375 7.19625 9.28875 7.8125 9.4375 C9.56150404 9.8872439 11.28677023 10.42892341 13 11 C13 11.66 13 12.32 13 13 C25.375 12.505 25.375 12.505 38 12 C30.95532103 15.52233948 21.51004266 16.22124855 13.76171875 14.50390625 C7.1904566 12.31348553 3.15865817 8.15107117 0 2 C0 1.34 0 0.68 0 0 Z " fill="#8B62E4" transform="translate(42,78)"/>
<path d="M0 0 C1.65 0 3.3 0 5 0 C5.11681812 3.54138618 5.187455 7.0822724 5.25 10.625 C5.28351563 11.62402344 5.31703125 12.62304688 5.3515625 13.65234375 C5.43280165 19.78589963 5.06816679 23.30719343 1 28 C-1.04197094 24.64085326 -1.1835561 22.25085463 -0.9765625 18.359375 C-0.925 17.28945313 -0.8734375 16.21953125 -0.8203125 15.1171875 C-0.72363281 13.45042969 -0.72363281 13.45042969 -0.625 11.75 C-0.56828125 10.62335937 -0.5115625 9.49671875 -0.453125 8.3359375 C-0.31180452 5.55663472 -0.16040592 2.7782559 0 0 Z " fill="#090909" transform="translate(195,38)"/>
<path d="M0 0 C0.99 0 1.98 0 3 0 C3 1.32 3 2.64 3 4 C4.98 4 6.96 4 9 4 C9 4.66 9 5.32 9 6 C7.02 6 5.04 6 3 6 C3.33 8.31 3.66 10.62 4 13 C6.475 13.99 6.475 13.99 9 15 C9 14.34 9 13.68 9 13 C9.99 13 10.98 13 12 13 C12 8.71 12 4.42 12 0 C12.99 0 13.98 0 15 0 C15 0.66 15 1.32 15 2 C14.34 2 13.68 2 13 2 C13 2.66 13 3.32 13 4 C13.66 4 14.32 4 15 4 C15 8.29 15 12.58 15 17 C13.68 16.67 12.36 16.34 11 16 C10.67 16.33 10.34 16.66 10 17 C6.52571972 17.38603114 4.68485595 17.50108423 1.81640625 15.40234375 C-0.60303786 12.2024338 -0.40853429 10.21335714 -0.25 6.25 C-0.21390625 5.07953125 -0.1778125 3.9090625 -0.140625 2.703125 C-0.09421875 1.81109375 -0.0478125 0.9190625 0 0 Z " fill="#9978E1" transform="translate(266,79)"/>
<path d="M0 0 C3.98486529 1.70779941 7.03592803 4.07185607 9 8 C9.07065617 10.04055005 9.08421976 12.08334257 9.0625 14.125 C9.05347656 15.22070312 9.04445313 16.31640625 9.03515625 17.4453125 C9.02355469 18.28835937 9.01195313 19.13140625 9 20 C7.02 20.99 7.02 20.99 5 22 C4.01 21.34 3.02 20.68 2 20 C1.5234375 16.953125 1.5234375 16.953125 1.375 13.25 C1.17377781 8.74645566 0.82969924 4.43413036 0 0 Z " fill="#1D1D1D" transform="translate(72,14)"/>
<path d="M0 0 C2.98704569 0.49784095 4.39324263 1.26216175 7 3 C9.0492094 3.45139459 9.0492094 3.45139459 11.1875 3.625 C12.445625 3.74875 13.70375 3.8725 15 4 C15 3.34 15 2.68 15 2 C17.475 2.495 17.475 2.495 20 3 C20 4.32 20 5.64 20 7 C15.32430046 10.11713303 10.47394498 9.59138799 5 9 C2.20225719 8.00043811 1.15655738 7.15655738 -1 5 C-1 1 -1 1 0 0 Z " fill="#131313" transform="translate(241,60)"/>
<path d="M0 0 C2.25 1.1875 2.25 1.1875 4.25 4.1875 C4.25 5.1775 4.25 6.1675 4.25 7.1875 C-2.02 7.1875 -8.29 7.1875 -14.75 7.1875 C-11.66332289 -0.52919277 -8.09410254 -2.39143939 0 0 Z " fill="#F2F2F2" transform="translate(256.75,43.8125)"/>
<path d="M0 0 C0.99 0 1.98 0 3 0 C3 2.64 3 5.28 3 8 C5.64 8 8.28 8 11 8 C11 5.36 11 2.72 11 0 C11.66 0 12.32 0 13 0 C13 5.94 13 11.88 13 18 C12.34 18 11.68 18 11 18 C11 15.69 11 13.38 11 11 C8.36 11 5.72 11 3 11 C3 13.31 3 15.62 3 18 C2.01 18 1.02 18 0 18 C0 12.06 0 6.12 0 0 Z " fill="#9E7EE7" transform="translate(315,78)"/>
<path d="M0 0 C13.04842953 -0.65901159 24.45784954 -0.34640454 35.3125 8 C37.56310218 10.13973508 37.95351401 10.69452067 38.4375 13.875 C38.293125 14.57625 38.14875 15.2775 38 16 C37.7525 15.38125 37.505 14.7625 37.25 14.125 C35.74507858 11.56663358 34.63781848 11.25200804 32 10 C30.74354047 9.17643829 29.49363907 8.34279672 28.25 7.5 C19.59890358 2.13253142 9.87619006 2.45545537 0 2 C0 1.34 0 0.68 0 0 Z " fill="#F6E5FE" transform="translate(112,84)"/>
<path d="M0 0 C0.75410156 0.00451172 1.50820312 0.00902344 2.28515625 0.01367188 C4.14847127 0.02546501 6.01174555 0.04340058 7.875 0.0625 C8.205 1.3825 8.535 2.7025 8.875 4.0625 C6.578463 5.2107685 5.29186833 5.17811175 2.7421875 5.16015625 C1.93652344 5.15693359 1.13085938 5.15371094 0.30078125 5.15039062 C-0.54097656 5.14201172 -1.38273437 5.13363281 -2.25 5.125 C-3.09949219 5.12048828 -3.94898437 5.11597656 -4.82421875 5.11132812 C-6.92450909 5.09952874 -9.0247633 5.08159306 -11.125 5.0625 C-10.75 3.125 -10.75 3.125 -10.125 1.0625 C-6.93675432 -0.53162284 -3.49603338 -0.03924735 0 0 Z " fill="#080808" transform="translate(129.125,26.9375)"/>
<path d="M0 0 C0.33 0 0.66 0 1 0 C3.24232494 13.49163576 1.03809634 27.02445139 -6.734375 38.578125 C-7.15203125 39.04734375 -7.5696875 39.5165625 -8 40 C-8.66 39.67 -9.32 39.34 -10 39 C-8.69732627 34.9351755 -7.20221398 31.03801629 -5.5 27.125 C-1.68207112 17.97319989 -0.57446035 9.9169997 0 0 Z " fill="#EBEBEB" transform="translate(71,20)"/>
<path d="M0 0 C5.28 0 10.56 0 16 0 C16.33 1.32 16.66 2.64 17 4 C16 5 16 5 12.40234375 5.09765625 C10.91403133 5.0909822 9.42573568 5.07902183 7.9375 5.0625 C7.17888672 5.05798828 6.42027344 5.05347656 5.63867188 5.04882812 C3.75908129 5.0370068 1.87953101 5.01907078 0 5 C-0.33 4.01 -0.66 3.02 -1 2 C-0.67 1.34 -0.34 0.68 0 0 Z " fill="#060606" transform="translate(336,38)"/>
<path d="M0 0 C0.99 0.66 1.98 1.32 3 2 C2.34 4.97 1.68 7.94 1 11 C0.67 10.34 0.34 9.68 0 9 C-0.94875 9.20625 -1.8975 9.4125 -2.875 9.625 C-3.90625 9.74875 -4.9375 9.8725 -6 10 C-8 8 -8 8 -8.125 4.875 C-8.08375 3.92625 -8.0425 2.9775 -8 2 C-6.0085944 1.61866701 -4.00720923 1.28674418 -2 1 C-1.67 1.33 -1.34 1.66 -1 2 C-0.67 1.34 -0.34 0.68 0 0 Z " fill="#EEE0FC" transform="translate(193,84)"/>
<path d="M0 0 C1.65 0 3.3 0 5 0 C5.08097324 2.27024968 5.13917704 4.54132075 5.1875 6.8125 C5.22230469 8.07707031 5.25710937 9.34164062 5.29296875 10.64453125 C5 14 5 14 3.61328125 15.94921875 C2 17 2 17 0 17 C0 11.39 0 5.78 0 0 Z " fill="#070707" transform="translate(171,38)"/>
<path d="M0 0 C1.85776765 3.13498292 2.20140476 5.37471432 2 9 C5 10.33333333 5 10.33333333 8 9 C7.57405412 10.44096586 7.13373367 11.87768712 6.6875 13.3125 C6.32205078 14.51326172 6.32205078 14.51326172 5.94921875 15.73828125 C4.95817977 18.09964573 3.91925057 19.33879993 2 21 C1.67 18.69 1.34 16.38 1 14 C0.34 14 -0.32 14 -1 14 C-2.33500455 8.65998179 -1.512545 5.16044765 0 0 Z " fill="#575757" transform="translate(61,30)"/>
<path d="M0 0 C0.53109375 0.27714844 1.0621875 0.55429688 1.609375 0.83984375 C2.31578125 1.20207031 3.0221875 1.56429687 3.75 1.9375 C4.79414062 2.47697266 4.79414062 2.47697266 5.859375 3.02734375 C9.2910831 4.58664177 12.35252546 5.12611723 16.109375 5.09765625 C17.24052734 5.09282227 17.24052734 5.09282227 18.39453125 5.08789062 C19.17183594 5.07951172 19.94914062 5.07113281 20.75 5.0625 C21.93916016 5.05573242 21.93916016 5.05573242 23.15234375 5.04882812 C25.10159508 5.03708565 27.05080738 5.01915146 29 5 C29 5.66 29 6.32 29 7 C25.37762495 8.20745835 22.0229405 8.22246029 18.25 8.25 C17.5590625 8.270625 16.868125 8.29125 16.15625 8.3125 C11.02618623 8.35107191 7.6072967 7.2434035 3 5 C1.67723944 4.62691369 0.34767923 4.26953585 -1 4 C-0.67 2.68 -0.34 1.36 0 0 Z " fill="#F5E3FE" transform="translate(46,87)"/>
<path d="M0 0 C0.99 0 1.98 0 3 0 C3.33 0.99 3.66 1.98 4 3 C3.34 4.32 2.68 5.64 2 7 C-1.96 7 -5.92 7 -10 7 C-10.33 5.35 -10.66 3.7 -11 2 C-7.37 2 -3.74 2 0 2 C0 1.34 0 0.68 0 0 Z " fill="#0D0D0D" transform="translate(322,62)"/>
<path d="M0 0 C0.33 0 0.66 0 1 0 C1.10826289 2.4178712 1.18739789 4.83087556 1.25 7.25 C1.30027344 8.27287109 1.30027344 8.27287109 1.3515625 9.31640625 C1.4215705 12.92181813 1.29151719 14.64068812 -1.015625 17.484375 C-1.67046875 17.98453125 -2.3253125 18.4846875 -3 19 C-3.99 18.34 -4.98 17.68 -6 17 C-7.9896995 16.60986284 -9.99019869 16.26797351 -12 16 C-12 15.34 -12 14.68 -12 14 C-11.360625 13.87625 -10.72125 13.7525 -10.0625 13.625 C-9.381875 13.41875 -8.70125 13.2125 -8 13 C-7.67 12.34 -7.34 11.68 -7 11 C-7.99 10.67 -8.98 10.34 -10 10 C-8.02 10 -6.04 10 -4 10 C-4 10.66 -4 11.32 -4 12 C-3.01 12.33 -2.02 12.66 -1 13 C-0.67 8.71 -0.34 4.42 0 0 Z " fill="#252525" transform="translate(228,28)"/>
<path d="M0 0 C0.87180908 0.42877441 0.87180908 0.42877441 1.76123047 0.86621094 C8.72280977 4.00378555 14.55773934 4.50031651 22.125 4.25 C23.176875 4.23195313 24.22875 4.21390625 25.3125 4.1953125 C27.87599422 4.14870351 30.43748094 4.0833027 33 4 C29.2046677 7.7953323 23.93719859 7.18627318 18.8125 7.25 C6.29236783 7.15189906 6.29236783 7.15189906 1 4 C0.39013672 1.93457031 0.39013672 1.93457031 0 0 Z " fill="#8A60E3" transform="translate(46,90)"/>
<path d="M0 0 C2.5 0.25 2.5 0.25 4.5 2.25 C4.6875 4.8125 4.6875 4.8125 4.5 7.25 C3.5 8.25 3.5 8.25 1.65234375 8.34765625 C-0.3984375 8.31510417 -2.44921875 8.28255208 -4.5 8.25 C-4.625 5.375 -4.625 5.375 -4.5 2.25 C-2.5 0.25 -2.5 0.25 0 0 Z " fill="#FDF6FE" transform="translate(162.5,80.75)"/>
<path d="M0 0 C2.5625 0.1875 2.5625 0.1875 4.5625 2.1875 C4.875 4.6875 4.875 4.6875 4.5625 7.1875 C1.5625 9.1875 1.5625 9.1875 -0.5 8.9375 C-2.4375 8.1875 -2.4375 8.1875 -4.4375 6.1875 C-3.71780303 0.28598485 -3.71780303 0.28598485 0 0 Z " fill="#EDDEFC" transform="translate(200.4375,84.8125)"/>
<path d="M0 0 C0.66 0.66 1.32 1.32 2 2 C1.625 5.625 1.625 5.625 1 9 C3.475 9.99 3.475 9.99 6 11 C2.91111478 13.05925681 2.29064073 13.2390374 -1.1875 13.125 C-3.0746875 13.063125 -3.0746875 13.063125 -5 13 C-4.48474397 7.71862571 -2.74522883 4.42778844 0 0 Z " fill="#BBBABC" transform="translate(59,68)"/>
<path d="M0 0 C4.55555556 0.55555556 4.55555556 0.55555556 6 2 C6.1875 4.4375 6.1875 4.4375 6 7 C5.34 7.66 4.68 8.32 4 9 C-0.55555556 8.44444444 -0.55555556 8.44444444 -2 7 C-2.1875 4.5625 -2.1875 4.5625 -2 2 C-1.34 1.34 -0.68 0.68 0 0 Z " fill="#F7EEFC" transform="translate(348,85)"/>
<path d="M0 0 C4.55555556 0.55555556 4.55555556 0.55555556 6 2 C6.1875 4.4375 6.1875 4.4375 6 7 C5.34 7.66 4.68 8.32 4 9 C-0.55555556 8.44444444 -0.55555556 8.44444444 -2 7 C-2.1875 4.5625 -2.1875 4.5625 -2 2 C-1.34 1.34 -0.68 0.68 0 0 Z " fill="#F2E5FD" transform="translate(286,85)"/>
<path d="M0 0 C0.66 0 1.32 0 2 0 C2.33 2.97 2.66 5.94 3 9 C4.65614657 9.38218767 6.32457024 9.71395102 8 10 C9.58272601 8.41727399 9.34735747 6.61965997 9.5625 4.4375 C9.64628906 3.61121094 9.73007812 2.78492187 9.81640625 1.93359375 C9.87699219 1.29550781 9.93757813 0.65742187 10 0 C10.66 0 11.32 0 12 0 C12.61989796 8.05867347 12.61989796 8.05867347 10.3125 11.5625 C7.53410897 13.28960794 6.20805592 13.65806275 3 13 C1.1875 11.5625 1.1875 11.5625 0 9 C-0.2389237 5.98228984 -0.17422682 3.01993159 0 0 Z " fill="#8765D9" transform="translate(330,83)"/>
<path d="M0 0 C4.55555556 0.55555556 4.55555556 0.55555556 6 2 C6.1875 4.4375 6.1875 4.4375 6 7 C5.34 7.66 4.68 8.32 4 9 C1.375 8.625 1.375 8.625 -1 8 C-1.625 5.125 -1.625 5.125 -2 2 C-1.34 1.34 -0.68 0.68 0 0 Z " fill="#F3E7FD" transform="translate(242,85)"/>
<path d="M0 0 C0.33 1.32 0.66 2.64 1 4 C0.05125 3.835 -0.8975 3.67 -1.875 3.5 C-4.80168901 2.9473365 -4.80168901 2.9473365 -7 3 C-6.34 5.31 -5.68 7.62 -5 10 C-3.02 10 -1.04 10 1 10 C0.67 10.99 0.34 11.98 0 13 C-3.55930982 13.32357362 -5.41791735 13.3880551 -8.4375 11.375 C-10 9 -10 9 -9.9375 5.9375 C-8.08607501 0.13636836 -5.94824093 -0.3965494 0 0 Z " fill="#8F71DC" transform="translate(192,83)"/>
<path d="M0 0 C3.78155989 1.26051996 4.25618367 2.56446606 6.25 5.9375 C6.79140625 6.83339844 7.3328125 7.72929688 7.890625 8.65234375 C8.25671875 9.42707031 8.6228125 10.20179687 9 11 C8.67 11.66 8.34 12.32 8 13 C6.576875 11.63875 6.576875 11.63875 5.125 10.25 C0.89099976 6.58111273 -3.74851768 4.79628168 -9 3 C-6.10765685 2.17361624 -4.11257569 2 -1 2 C-0.67 1.34 -0.34 0.68 0 0 Z " fill="#9B74EA" transform="translate(142,83)"/>
<path d="M0 0 C0 0.66 0 1.32 0 2 C-0.969375 1.979375 -1.93875 1.95875 -2.9375 1.9375 C-5.87465895 1.64381501 -5.87465895 1.64381501 -7 3 C-7.04063832 4.66617115 -7.042721 6.33388095 -7 8 C-4.69 8.33 -2.38 8.66 0 9 C0 9.66 0 10.32 0 11 C-6.625 12.25 -6.625 12.25 -10 10 C-10.643026 3.24822695 -10.643026 3.24822695 -8.9375 -0.0625 C-5.8584134 -1.55238061 -3.25143042 -0.67482518 0 0 Z " fill="#9573DD" transform="translate(181,84)"/>
<path d="M0 0 C1.134375 0.020625 2.26875 0.04125 3.4375 0.0625 C3.5625 2.9375 3.5625 2.9375 3.4375 6.0625 C2.7775 6.7225 2.1175 7.3825 1.4375 8.0625 C-3.11805556 7.50694444 -3.11805556 7.50694444 -4.5625 6.0625 C-4.6875 3.5625 -4.6875 3.5625 -4.5625 1.0625 C-3.5625 0.0625 -3.5625 0.0625 0 0 Z " fill="#F3E6FD" transform="translate(258.5625,85.9375)"/>
<path d="M0 0 C0.76724391 2.25919395 1.13618605 3.56649605 0.41088867 5.87524414 C0.0832251 6.50551514 -0.24443848 7.13578613 -0.58203125 7.78515625 C-0.93716797 8.48060547 -1.29230469 9.17605469 -1.65820312 9.89257812 C-2.03912109 10.60865234 -2.42003906 11.32472656 -2.8125 12.0625 C-3.18181641 12.78244141 -3.55113281 13.50238281 -3.93164062 14.24414062 C-5.50431926 17.28502912 -7.09730035 20.14595053 -9 23 C-9.92934317 20.49716575 -10.22879153 18.67722996 -9.36474609 16.11962891 C-8.36955853 13.97784567 -7.30131582 11.8950152 -6.1875 9.8125 C-5.63352539 8.72678711 -5.63352539 8.72678711 -5.06835938 7.61914062 C-2.32553089 2.32553089 -2.32553089 2.32553089 0 0 Z " fill="#F2F2F2" transform="translate(62,58)"/>
<path d="M0 0 C2.76276177 0.52268466 5.3260876 1.10869587 8 2 C8 2.66 8 3.32 8 4 C20.375 3.505 20.375 3.505 33 3 C25.99570849 6.50214575 16.37965133 7.31988061 8.69140625 5.43359375 C5.08709953 4.17043305 2.55973932 2.79457779 0 0 Z " fill="#966DE9" transform="translate(47,87)"/>
<path d="M0 0 C3 0.125 3 0.125 4 1.125 C4.1875 3.5625 4.1875 3.5625 4 6.125 C3.34 6.785 2.68 7.445 2 8.125 C-2.55555556 7.56944444 -2.55555556 7.56944444 -4 6.125 C-4.125 3.625 -4.125 3.625 -4 1.125 C-3 0.125 -3 0.125 0 0 Z " fill="#F5E9FC" transform="translate(231,85.875)"/>
<path d="M0 0 C0.33 1.98 0.66 3.96 1 6 C0.443125 5.319375 -0.11375 4.63875 -0.6875 3.9375 C-1.450625 3.298125 -2.21375 2.65875 -3 2 C-5.70705512 2.14025199 -5.70705512 2.14025199 -8 3 C-8 4.65 -8 6.3 -8 8 C-6.02 8.66 -4.04 9.32 -2 10 C-2 10.66 -2 11.32 -2 12 C-5.375 11.6875 -5.375 11.6875 -9 11 C-11 8 -11 8 -10.8125 4.4375 C-9.26647301 -2.1033834 -5.64697672 -1.06546731 0 0 Z " fill="#8766D7" transform="translate(293,84)"/>
<path d="M0 0 C0.99 0.33 1.98 0.66 3 1 C3 4.96 3 8.92 3 13 C1.02 13.99 1.02 13.99 -1 15 C-1.77321882 12.01758453 -2.41196203 9.02419525 -3 6 C-2.34 5.67 -1.68 5.34 -1 5 C-0.34444881 2.47266765 -0.34444881 2.47266765 0 0 Z " fill="#161616" transform="translate(78,21)"/>
<path d="M0 0 C1.48026316 7.23684211 1.48026316 7.23684211 0 10 C-3.0625 11.25 -3.0625 11.25 -6 12 C-6.48979592 4.65306122 -6.48979592 4.65306122 -4.125 1.5 C-2 0 -2 0 0 0 Z " fill="#1A1A1A" transform="translate(336,38)"/>
<path d="M0 0 C1.875 0.3125 1.875 0.3125 4 1 C4.66 1.99 5.32 2.98 6 4 C8.41607417 4.79798218 8.41607417 4.79798218 11.125 5.1875 C12.03507812 5.34605469 12.94515625 5.50460938 13.8828125 5.66796875 C14.58148438 5.77753906 15.28015625 5.88710938 16 6 C16 6.33 16 6.66 16 7 C12.7 7.33 9.4 7.66 6 8 C6 8.99 6 9.98 6 11 C1.125 9.25 1.125 9.25 0 7 C0.99 6.67 1.98 6.34 3 6 C2.01 4.02 1.02 2.04 0 0 Z " fill="#373737" transform="translate(306,57)"/>
<path d="M0 0 C0 0.33 0 0.66 0 1 C-0.60062256 1.05534912 -1.20124512 1.11069824 -1.82006836 1.16772461 C-4.52633131 1.41970782 -7.23189884 1.6785117 -9.9375 1.9375 C-10.88302734 2.02451172 -11.82855469 2.11152344 -12.80273438 2.20117188 C-13.70185547 2.28818359 -14.60097656 2.37519531 -15.52734375 2.46484375 C-16.35999756 2.543396 -17.19265137 2.62194824 -18.05053711 2.70288086 C-20.000612 2.80311398 -20.000612 2.80311398 -21 4 C-23.52596259 4.23653523 -26.03107207 4.42173692 -28.5625 4.5625 C-29.62887695 4.62727539 -29.62887695 4.62727539 -30.71679688 4.69335938 C-32.47761912 4.79971777 -34.2387832 4.90038846 -36 5 C-33.21904748 2.21904748 -30.1790144 2.02394936 -26.4375 1.375 C-25.69185791 1.24311279 -24.94621582 1.11122559 -24.17797852 0.9753418 C-16.11346279 -0.32952232 -8.14283197 -0.27516453 0 0 Z " fill="#8B61E1" transform="translate(124,73)"/>
<path d="M0 0 C0.99 0 1.98 0 3 0 C3 0.66 3 1.32 3 2 C2.34 2 1.68 2 1 2 C1 2.66 1 3.32 1 4 C1.66 4 2.32 4 3 4 C3 8.29 3 12.58 3 17 C-1 15 -1 15 -3 13 C-2.01 13 -1.02 13 0 13 C0 8.71 0 4.42 0 0 Z " fill="#A78AE2" transform="translate(278,79)"/>
<path d="M0 0 C2.86724686 0.57344937 3.8614515 0.8614515 6 3 C6.1953125 6.0390625 6.1953125 6.0390625 6.125 9.625 C6.10695312 10.81351563 6.08890625 12.00203125 6.0703125 13.2265625 C6.04710937 14.14179687 6.02390625 15.05703125 6 16 C5.34 16 4.68 16 4 16 C3.67 14.68 3.34 13.36 3 12 C0.36 11.67 -2.28 11.34 -5 11 C-5 10.67 -5 10.34 -5 10 C-2.36 9.67 0.28 9.34 3 9 C3.26218749 5.85375007 3.24754367 4.38162983 1.5 1.6875 C1.005 1.130625 0.51 0.57375 0 0 Z " fill="#8866D1" transform="translate(163,79)"/>
<path d="M0 0 C0.66 0 1.32 0 2 0 C2 3.96 2 7.92 2 12 C1.278125 11.319375 0.55625 10.63875 -0.1875 9.9375 C-2.80192819 7.70566072 -2.80192819 7.70566072 -5.6875 8.1875 C-7.98622081 8.94084453 -7.98622081 8.94084453 -10 10 C-9.67 8.68 -9.34 7.36 -9 6 C-3.25 4.875 -3.25 4.875 -1 6 C-0.67 4.02 -0.34 2.04 0 0 Z " fill="#8966D7" transform="translate(249,78)"/>
<path d="M0 0 C0.33 0.99 0.66 1.98 1 3 C-2.75 6 -2.75 6 -5 6 C-5 5.34 -5 4.68 -5 4 C-8.87132028 4.57352893 -11.08172796 6.48704352 -14 9 C-11.63175456 2.6057373 -6.73985507 -0.8023637 0 0 Z " fill="#202020" transform="translate(251,38)"/>
<path d="M0 0 C6.54185022 0.4845815 6.54185022 0.4845815 8.5 2.6875 C9.16158261 5.74731957 8.78650761 7.98505416 8 11 C6 13 6 13 2.875 13.125 C1.451875 13.063125 1.451875 13.063125 0 13 C0 12.34 0 11.68 0 11 C1.98 10.34 3.96 9.68 6 9 C6 7.35 6 5.7 6 4 C4.02 3.34 2.04 2.68 0 2 C0 1.34 0 0.68 0 0 Z " fill="#8767D5" transform="translate(228,83)"/>
<path d="M0 0 C1 1 1 1 1.09765625 3.50390625 C1.08605469 4.51324219 1.07445312 5.52257812 1.0625 6.5625 C1.05347656 7.57441406 1.04445312 8.58632812 1.03515625 9.62890625 C1.02355469 10.41136719 1.01195312 11.19382812 1 12 C0.67 12 0.34 12 0 12 C-0.33 9.03 -0.66 6.06 -1 3 C-2.32 2.67 -3.64 2.34 -5 2 C-5 5.3 -5 8.6 -5 12 C-5.66 12 -6.32 12 -7 12 C-7 8.37 -7 4.74 -7 1 C-4.51588385 -0.24205807 -2.74800896 -0.14092354 0 0 Z " fill="#835FCF" transform="translate(222,83)"/>
<path d="M0 0 C2.0625 0.4375 2.0625 0.4375 4 1 C4 1.66 4 2.32 4 3 C9.61 3 15.22 3 21 3 C21 3.33 21 3.66 21 4 C19.90300781 4.04898438 18.80601562 4.09796875 17.67578125 4.1484375 C16.22133075 4.22350591 14.76690484 4.29905197 13.3125 4.375 C12.2306543 4.42140625 12.2306543 4.42140625 11.12695312 4.46875 C7.02789606 4.69335587 3.75631541 5.17740909 0 7 C-0.38133299 5.0085944 -0.71325582 3.00720923 -1 1 C-0.67 0.67 -0.34 0.34 0 0 Z " fill="#3D3D3D" transform="translate(325,60)"/>
<path d="M0 0 C2.4375 0.4375 2.4375 0.4375 4.4375 2.4375 C4.1075 3.7575 3.7775 5.0775 3.4375 6.4375 C0.4675 6.1075 -2.5025 5.7775 -5.5625 5.4375 C-3.24265926 0.55362475 -3.24265926 0.55362475 0 0 Z " fill="#8854F2" transform="translate(137.5625,79.5625)"/>
<path d="M0 0 C0.73605469 0.01353516 1.47210938 0.02707031 2.23046875 0.04101562 C4.02896743 0.07605131 5.82708422 0.12984712 7.625 0.1875 C7.625 0.5175 7.625 0.8475 7.625 1.1875 C6.61179688 1.20167969 5.59859375 1.21585938 4.5546875 1.23046875 C-3.86162912 1.13126869 -3.86162912 1.13126869 -11.125 4.6875 C-11.8675 5.5125 -12.61 6.3375 -13.375 7.1875 C-14.365 7.5175 -15.355 7.8475 -16.375 8.1875 C-15.46219883 4.81013568 -14.79452808 3.45865839 -11.8125 1.53125 C-7.66009057 -0.09196459 -4.39694338 -0.15504592 0 0 Z " fill="#232323" transform="translate(128.375,25.8125)"/>
<path d="M0 0 C0.66 1.32 1.32 2.64 2 4 C2.66 4 3.32 4 4 4 C4.67154933 5.28913487 5.33708859 6.58140204 6 7.875 C6.37125 8.59429687 6.7425 9.31359375 7.125 10.0546875 C8 12 8 12 8 14 C6 14 6 14 4 12.0625 C3.34 11.381875 2.68 10.70125 2 10 C1.34 9.67 0.68 9.34 0 9 C0 8.34 0 7.68 0 7 C0.66 7 1.32 7 2 7 C1.34 6.01 0.68 5.02 0 4 C0 2.68 0 1.36 0 0 Z " fill="#966EEB" transform="translate(147,96)"/>
<path d="M0 0 C1.32 0.66 2.64 1.32 4 2 C4 3.98 4 5.96 4 8 C2.68 8.33 1.36 8.66 0 9 C-1.36623674 6.26752652 -1.128426 4.01801098 -1 1 C-0.67 0.67 -0.34 0.34 0 0 Z " fill="#141414" transform="translate(66,12)"/>
<path d="M0 0 C0.33 0 0.66 0 1 0 C1.22333047 2.54113858 1.42902091 5.08172584 1.625 7.625 C1.68945312 8.33785156 1.75390625 9.05070312 1.8203125 9.78515625 C2.15497142 14.34488399 1.78239103 17.68688582 0 22 C-2 20 -2 20 -2.04345703 17.93701172 C-1.94919434 17.10959473 -1.85493164 16.28217773 -1.7578125 15.4296875 C-1.66113281 14.53378906 -1.56445312 13.63789062 -1.46484375 12.71484375 C-1.35269531 11.77769531 -1.24054688 10.84054688 -1.125 9.875 C-1.02058594 8.93011719 -0.91617188 7.98523438 -0.80859375 7.01171875 C-0.5487593 4.6732087 -0.27883941 2.33630756 0 0 Z " fill="#D0D0D0" transform="translate(71,20)"/>
<path d="M0 0 C0.33 0.66 0.66 1.32 1 2 C1.66 2.33 2.32 2.66 3 3 C2.34 5.64 1.68 8.28 1 11 C-0.32 11.33 -1.64 11.66 -3 12 C-3.34833144 7.12335991 -2.41685712 4.22949995 0 0 Z " fill="#888888" transform="translate(54,49)"/>
<path d="M0 0 C0.33 0 0.66 0 1 0 C1.144375 0.9075 1.28875 1.815 1.4375 2.75 C1.90867039 5.79544349 1.90867039 5.79544349 2.53125 7.90625 C3.05600175 10.25014114 3.09777879 12.35104246 3.0625 14.75 C3.05347656 15.54921875 3.04445312 16.3484375 3.03515625 17.171875 C3.01775391 18.07679687 3.01775391 18.07679687 3 19 C2.01 19 1.02 19 0 19 C0 12.73 0 6.46 0 0 Z " fill="#BBBBBB" transform="translate(200,39)"/>
<path d="M0 0 C0.66 0 1.32 0 2 0 C2 1.32 2 2.64 2 4 C-6.58 4 -15.16 4 -24 4 C-24 3.34 -24 2.68 -24 2 C-16.08 2 -8.16 2 0 2 C0 1.34 0 0.68 0 0 Z " fill="#8D63E4" transform="translate(130,81)"/>
<path d="M0 0 C0 0.66 0 1.32 0 2 C5.28 2 10.56 2 16 2 C16 2.33 16 2.66 16 3 C5.605 3.495 5.605 3.495 -5 4 C-5 3.34 -5 2.68 -5 2 C-5.99 1.67 -6.98 1.34 -8 1 C-5.23735711 0.40267181 -2.83967231 0 0 0 Z " fill="#DAC1FC" transform="translate(112,84)"/>
<path d="M0 0 C0.99 0 1.98 0 3 0 C2.745504 1.48206495 2.47088238 2.96068615 2.1875 4.4375 C2.03667969 5.26121094 1.88585937 6.08492187 1.73046875 6.93359375 C1.36888672 7.95646484 1.36888672 7.95646484 1 9 C0.01 9.33 -0.98 9.66 -2 10 C-2.6875 8.375 -2.6875 8.375 -3 6 C-1.5625 2.75 -1.5625 2.75 0 0 Z " fill="#5D5D5D" transform="translate(76,46)"/>
<path d="M0 0 C3 1 3 1 5 4 C5.25760279 6.69452521 5.08900053 9.28548375 5 12 C4.01 12.495 4.01 12.495 3 13 C1.8422494 9.52674819 1.93133348 6.63932552 2 3 C0.02 3 -1.96 3 -4 3 C-2.68 2.67 -1.36 2.34 0 2 C0 1.34 0 0.68 0 0 Z " fill="#9777DD" transform="translate(260,83)"/>
<path d="M0 0 C0.66 0.33 1.32 0.66 2 1 C0.78763672 1.94939453 0.78763672 1.94939453 -0.44921875 2.91796875 C-4.04691462 6.51566462 -3.77803429 10.46049433 -3.8125 15.3125 C-3.83763672 16.14845703 -3.86277344 16.98441406 -3.88867188 17.84570312 C-3.9472699 19.89663409 -3.97656493 21.94836593 -4 24 C-4.33 24 -4.66 24 -5 24 C-5.13530844 20.93601549 -5.2342407 17.87802874 -5.3125 14.8125 C-5.35439453 13.94818359 -5.39628906 13.08386719 -5.43945312 12.19335938 C-5.5608921 5.8542447 -5.5608921 5.8542447 -3.86474609 3.27099609 C-2.48046875 1.88671875 -2.48046875 1.88671875 0 0 Z " fill="#C0C0C0" transform="translate(279,44)"/>
<path d="M0 0 C0.28875 0.598125 0.5775 1.19625 0.875 1.8125 C2.04742026 4.19327792 2.04742026 4.19327792 4 7 C7.08365871 7.2502157 7.08365871 7.2502157 10 7 C9.67 7.99 9.34 8.98 9 10 C3.63157895 10.35789474 3.63157895 10.35789474 1.125 8.9375 C-0.58196395 5.99772876 -0.18799766 3.32129197 0 0 Z " fill="#8A68D8" transform="translate(267,86)"/>
<path d="M0 0 C1.32 0 2.64 0 4 0 C4 0.66 4 1.32 4 2 C3.01 2.33 2.02 2.66 1 3 C0.67 5.97 0.34 8.94 0 12 C-0.66 12 -1.32 12 -2 12 C-2.05395478 10.37536158 -2.09277195 8.75021459 -2.125 7.125 C-2.14820313 6.22007813 -2.17140625 5.31515625 -2.1953125 4.3828125 C-2 2 -2 2 0 0 Z " fill="#8861DE" transform="translate(210,83)"/>
<path d="M0 0 C0.33 0 0.66 0 1 0 C1.33 4.95 1.66 9.9 2 15 C0.68 15 -0.64 15 -2 15 C-1.34 10.05 -0.68 5.1 0 0 Z " fill="#E2C7FB" transform="translate(343,79)"/>
<path d="M0 0 C0.66 0.33 1.32 0.66 2 1 C2.042721 2.66611905 2.04063832 4.33382885 2 6 C1 7 1 7 -0.84765625 7.09765625 C-2.8984375 7.06510417 -4.94921875 7.03255208 -7 7 C-7 5.02 -7 3.04 -7 1 C-6.34 2.32 -5.68 3.64 -5 5 C-3.35 5 -1.7 5 0 5 C0 3.35 0 1.7 0 0 Z " fill="#D6BAFC" transform="translate(165,82)"/>
<path d="M0 0 C0.33 0 0.66 0 1 0 C1.3125 2.25 1.3125 2.25 1 5 C-1.1875 7.375 -1.1875 7.375 -4 9 C-6.8125 8.75 -6.8125 8.75 -9 8 C-9 7.67 -9 7.34 -9 7 C-8.05125 6.7525 -7.1025 6.505 -6.125 6.25 C-2.92285485 5.32193266 -2.92285485 5.32193266 -1.6875 2.9375 C-1.460625 2.298125 -1.23375 1.65875 -1 1 C-0.67 0.67 -0.34 0.34 0 0 Z " fill="#9172E0" transform="translate(356,87)"/>
<path d="M0 0 C0.33 0 0.66 0 1 0 C1.33 2.31 1.66 4.62 2 7 C4.64 7.33 7.28 7.66 10 8 C10 8.33 10 8.66 10 9 C7.36 9.33 4.72 9.66 2 10 C1.67 11.98 1.34 13.96 1 16 C0.67 16 0.34 16 0 16 C0 10.72 0 5.44 0 0 Z " fill="#7F59D8" transform="translate(316,79)"/>
<path d="M0 0 C0 0.66 0 1.32 0 2 C-1.2065625 2.309375 -1.2065625 2.309375 -2.4375 2.625 C-3.7059375 3.305625 -3.7059375 3.305625 -5 4 C-5.89830839 7.05272465 -5.89830839 7.05272465 -6 10 C-6.66 9.67 -7.32 9.34 -8 9 C-8.25 6.1875 -8.25 6.1875 -8 3 C-5.22094435 0.02244037 -4.2016934 0 0 0 Z " fill="#8863D8" transform="translate(260,83)"/>
<path d="M0 0 C0.66 0.33 1.32 0.66 2 1 C2 3.31 2 5.62 2 8 C1.34 7.34 0.68 6.68 0 6 C-0.33 6.66 -0.66 7.32 -1 8 C-1.99 7.67 -2.98 7.34 -4 7 C-3.39816251 4.97954558 -2.72693904 2.97888961 -2 1 C-1.34 0.67 -0.68 0.34 0 0 Z " fill="#A784EF" transform="translate(294,87)"/>
<path d="M0 0 C0.94875 0.04125 1.8975 0.0825 2.875 0.125 C3.205 1.445 3.535 2.765 3.875 4.125 C2.92625 3.96 1.9775 3.795 1 3.625 C-1.92668901 3.0723365 -1.92668901 3.0723365 -4.125 3.125 C-4.785 4.445 -5.445 5.765 -6.125 7.125 C-5.03177966 0.20127119 -5.03177966 0.20127119 0 0 Z " fill="#886AD0" transform="translate(189.125,82.875)"/>
<path d="M0 0 C0 0.66 0 1.32 0 2 C-0.9075 1.896875 -1.815 1.79375 -2.75 1.6875 C-6.19728131 1.66048792 -6.19728131 1.66048792 -8.375 4.5 C-8.91125 5.325 -9.4475 6.15 -10 7 C-10.22111261 4.27294446 -10.30361625 2.53579338 -8.9375 0.125 C-5.88430685 -1.64782183 -3.33588292 -0.69235306 0 0 Z " fill="#8865D2" transform="translate(181,84)"/>
<path d="M0 0 C0.99 0 1.98 0 3 0 C6.125 6.625 6.125 6.625 5 10 C2.08772731 6.71195019 0.50298788 4.40114397 0 0 Z " fill="#9E77EA" transform="translate(236,86)"/>
<path d="M0 0 C0.33 1.32 0.66 2.64 1 4 C1.66 4 2.32 4 3 4 C3 5.32 3 6.64 3 8 C2.34 8 1.68 8 1 8 C0.67 8.99 0.34 9.98 0 11 C-0.33 11 -0.66 11 -1 11 C-0.67 7.37 -0.34 3.74 0 0 Z " fill="#3E3E3E" transform="translate(63,23)"/>
<path d="M0 0 C3.96 1.98 3.96 1.98 8 4 C8 4.99 8 5.98 8 7 C6.88625 6.5359375 6.88625 6.5359375 5.75 6.0625 C3.49307824 5.1905075 1.3549847 4.52332993 -1 4 C-0.67 2.68 -0.34 1.36 0 0 Z " fill="#ECD5FB" transform="translate(46,87)"/>
<path d="M0 0 C0 1.98 0 3.96 0 6 C-0.66 6 -1.32 6 -2 6 C-2.33 4.68 -2.66 3.36 -3 2 C-5.64 1.67 -8.28 1.34 -11 1 C-11 0.67 -11 0.34 -11 0 C-3.375 -1.125 -3.375 -1.125 0 0 Z " fill="#825DD4" transform="translate(169,89)"/>
<path d="M0 0 C-0.33 0.99 -0.66 1.98 -1 3 C-2.98 3.33 -4.96 3.66 -7 4 C-7 2.68 -7 1.36 -7 0 C-4.3333581 -1.33332095 -2.83319697 -0.67102033 0 0 Z " fill="#050505" transform="translate(221,39)"/>
<path d="M0 0 C1.98 0.66 3.96 1.32 6 2 C5.67 2.66 5.34 3.32 5 4 C4.34 4 3.68 4 3 4 C2.67 4.66 2.34 5.32 2 6 C1.67 5.34 1.34 4.68 1 4 C0.01 4.495 0.01 4.495 -1 5 C-0.67 3.35 -0.34 1.7 0 0 Z " fill="#414141" transform="translate(63,36)"/>
<path d="M0 0 C5.75 0.75 5.75 0.75 8 3 C7.625 5.125 7.625 5.125 7 7 C6.4121875 6.0409375 6.4121875 6.0409375 5.8125 5.0625 C3.61527704 2.56221181 2.24208567 2.35049575 -1 2 C-0.67 1.34 -0.34 0.68 0 0 Z " fill="#8267CD" transform="translate(348,83)"/>
<path d="M0 0 C1.32 0.33 2.64 0.66 4 1 C3 2.5625 3 2.5625 1 4 C-1.76614782 3.96726452 -4.26030547 3.49404328 -7 3 C-6.67 2.34 -6.34 1.68 -6 1 C-3.03 1.495 -3.03 1.495 0 2 C0 1.34 0 0.68 0 0 Z " fill="#DCC4FA" transform="translate(181,84)"/>
<path d="M0 0 C0.66 0.66 1.32 1.32 2 2 C1.625 5.625 1.625 5.625 1 9 C0.01 8.67 -0.98 8.34 -2 8 C-1.125 2.25 -1.125 2.25 0 0 Z " fill="#AFAFAF" transform="translate(59,68)"/>
<path d="M0 0 C2.50037734 2.17424117 3.43628586 3.73045798 4 7 C2 7 2 7 -0.125 5.125 C-2 3 -2 3 -2 1 C-1.34 0.67 -0.68 0.34 0 0 Z " fill="#997DE1" transform="translate(151,103)"/>
<path d="M0 0 C1.32 0.33 2.64 0.66 4 1 C4 1.66 4 2.32 4 3 C6.475 3.99 6.475 3.99 9 5 C7.3125 5.8125 7.3125 5.8125 5 6 C2.25 3.625 2.25 3.625 0 1 C0 0.67 0 0.34 0 0 Z " fill="#8D5FE2" transform="translate(48,96)"/>
<path d="M0 0 C1.98 0.99 1.98 0.99 4 2 C4 5.41099168 3.50854594 8.63088314 3 12 C2.67 12 2.34 12 2 12 C1.93941406 11.38511719 1.87882812 10.77023438 1.81640625 10.13671875 C1.73261719 9.32847656 1.64882813 8.52023438 1.5625 7.6875 C1.48128906 6.88699219 1.40007813 6.08648437 1.31640625 5.26171875 C1.04734307 2.83912821 1.04734307 2.83912821 0 0 Z " fill="#5C5C5C" transform="translate(62,8)"/>
<path d="M0 0 C2.625 0.375 2.625 0.375 5 1 C4.401875 1.2475 3.80375 1.495 3.1875 1.75 C0.71352479 3.16370012 -0.43370255 4.65055383 -2 7 C-2.125 4.625 -2.125 4.625 -2 2 C-1.34 1.34 -0.68 0.68 0 0 Z " fill="#E8D6FE" transform="translate(348,85)"/>
<path d="M0 0 C2.64 0 5.28 0 8 0 C6.68 1.65 5.36 3.3 4 5 C3.71125 4.360625 3.4225 3.72125 3.125 3.0625 C2.17176549 0.84793921 2.17176549 0.84793921 0 0 Z " fill="#F0DDFF" transform="translate(291,83)"/>
<path d="M0 0 C-0.33 0.99 -0.66 1.98 -1 3 C-3.375 3.625 -3.375 3.625 -6 4 C-6.66 3.34 -7.32 2.68 -8 2 C-4.77208445 -0.1519437 -3.71599191 -0.20086443 0 0 Z " fill="#9B7BE7" transform="translate(165,78)"/>
<path d="M0 0 C0.33 1.32 0.66 2.64 1 4 C3.97 4.495 3.97 4.495 7 5 C7 5.33 7 5.66 7 6 C4.36 6 1.72 6 -1 6 C-0.67 4.02 -0.34 2.04 0 0 Z " fill="#D0CECD" transform="translate(55,75)"/>
<path d="M0 0 C0.99 0 1.98 0 3 0 C2.67 1.98 2.34 3.96 2 6 C1.34 6 0.68 6 0 6 C-0.38218767 4.34385343 -0.71395102 2.67542976 -1 1 C-0.67 0.67 -0.34 0.34 0 0 Z " fill="#565656" transform="translate(76,46)"/>
</svg>
