<svg id="Layer_1" data-name="Layer 1" xmlns="http://www.w3.org/2000/svg" viewBox="0 0 421 108"><defs><style>.cls-1{fill:#9238ff;}.cls-2{fill:#383c3d;}</style></defs><path class="cls-1" d="M398.3,69.52l-8.43-12c-.78,0-1.61.11-2.45.11h-9.66V69.52h-5.58V30.44h15.24c10.16,0,16.3,5.14,16.3,13.62,0,6-3.13,10.39-8.6,12.34l9.27,13.12Zm-.16-25.46c0-5.58-3.74-8.76-10.89-8.76h-9.49V52.88h9.49C394.4,52.88,398.14,49.65,398.14,44.06Z"/><path class="cls-2" d="M116.5,30.44h5.59V64.66h21.15v4.86H116.5Z"/><path class="cls-2" d="M227.19,59c0,6.7-5.08,10.55-15,10.55H193.59V30.44h17.52c9,0,14,3.8,14,10.11a9.27,9.27,0,0,1-5.25,8.71A9.43,9.43,0,0,1,227.19,59Zm-28-24v12.5h11.44c5.7,0,8.93-2.12,8.93-6.25S216.31,35,210.61,35Zm22.38,23.55C221.55,54,218.2,52,212,52H199.17V65H212C218.2,65,221.55,63,221.55,58.52Z"/><path class="cls-1" d="M268.75,30.44,251.61,69.52h-5.52l-17.2-39.08h6L249,62.54l14.18-32.1Z"/><path class="cls-1" d="M274.63,30.44h5.58V69.52h-5.58Z"/><path class="cls-1" d="M319.87,64.66v4.86H287.22v-3.8L311.78,35.3H287.61V30.44h31.54v3.8L294.7,64.66Z"/><path class="cls-1" d="M322.13,50c0-11.44,8.82-20,20.82-20s20.71,8.48,20.71,20S354.84,70,343,70,322.13,61.42,322.13,50Zm35.95,0c0-8.65-6.48-15-15.13-15s-15.24,6.36-15.24,15S334.19,65,343,65A14.68,14.68,0,0,0,358.08,50Z"/><polygon class="cls-2" points="181.24 55.28 175.59 55.28 167.17 55.28 158.74 55.28 167.17 36.14 172.88 49.12 178.44 49.12 169.96 30.44 164.43 30.44 146.74 69.52 152.49 69.52 156.78 59.75 177.55 59.75 181.85 69.52 187.71 69.52 181.24 55.28"/><polygon class="cls-1" points="100.91 76.75 93.38 65.35 56.21 65.35 48.68 76.75 100.91 76.75"/><polygon class="cls-1" points="61.09 16.51 54.26 6.18 4.67 81.23 18.32 81.23 61.09 16.51"/><polygon class="cls-2" points="112.52 94.3 16.57 94.3 64.53 21.71 71.37 32.05 37.75 82.91 104.98 82.91 112.52 94.3"/></svg>